Coordinates
version=1
nRows=16
nColumns=42
inDegrees=yes

Units are S.I. units (second, meters, Newtons, ...)
If the header above contains a line with 'inDegrees', this indicates whether rotational values are in degrees (yes) or radians (no).

endheader
time	pelvis_tilt	pelvis_list	pelvis_rotation	pelvis_tx	pelvis_ty	pelvis_tz	hip_flexion_r	hip_adduction_r	hip_rotation_r	knee_angle_r	knee_adduction_r	knee_angle_r_beta	ankle_angle_r	subtalar_angle_r	mtp_angle_r	hip_flexion_l	hip_adduction_l	hip_rotation_l	knee_angle_l	knee_adduction_l	knee_angle_l_beta	ankle_angle_l	subtalar_angle_l	mtp_angle_l	lumbar_extension	lumbar_bending	lumbar_rotation	arm_flex_r	arm_add_r	arm_rot_r	elbow_flex_r	pro_sup_r	wrist_flex_r	wrist_dev_r	arm_flex_l	arm_add_l	arm_rot_l	elbow_flex_l	pro_sup_l	wrist_flex_l	wrist_dev_l
      1.68000000	     13.75158131	     -4.89016876	     -0.76526000	     -1.05490952	      0.90057890	      0.03511618	    -29.16927165	     -0.39631640	    -12.12250797	     13.52254817	     11.57212323	      0.23601299	     15.32486762	     34.91934656	     -7.56747383	     15.67892331	     -7.34270372	     -7.64637079	     25.82994468	     -4.38751231	      0.45081758	     13.92351504	      9.30586044	     -7.56747383	    -29.84874152	     -0.27067119	      0.42983405	     14.58268216	    -31.80209696	      6.49252878	     81.37291082	     90.00000001	      0.00000000	      0.00000000	     -5.05421210	     -8.06421157	    -13.15759568	     34.94102083	     90.00000001	      0.00000000	      0.00000000
      1.69000000	     13.53060707	     -4.85163629	     -0.91917103	     -1.04548270	      0.89988204	      0.03386415	    -29.37184499	     -0.65536818	    -11.76479625	     13.80873185	     11.37951572	      0.24100784	     15.17551470	     34.98958841	     -7.56733131	     15.53556421	     -7.05680809	     -7.26490424	     26.36588887	     -4.46030896	      0.46017157	     13.79211048	      9.46844822	     -7.56733131	    -29.52802357	     -0.33172111	      0.41726770	     14.50417759	    -31.75047629	      6.46972067	     81.60149341	     90.00000001	      0.00000000	      0.00000000	     -5.12541503	     -8.14036526	    -13.19629911	     34.95697286	     90.00000001	      0.00000000	      0.00000000
      1.70000000	     13.15679627	     -4.71881639	     -0.82599161	     -1.03622320	      0.89868715	      0.03179545	    -29.38451871	     -1.12679214	    -11.79901677	     14.33769214	     11.67387637	      0.25023994	     14.90893412	     35.04210327	     -7.56662327	     16.04047824	     -6.63312612	     -7.05031439	     27.78188331	     -4.63746348	      0.48488534	     13.69868121	      9.71159103	     -7.56662327	    -29.12295967	     -0.32252463	      0.30411571	     14.02658952	    -31.75578229	      6.00198069	     82.36892820	     90.00000001	      0.00000000	      0.00000000	     -5.03544107	     -8.19019176	    -13.28338730	     35.15659085	     90.00000001	      0.00000000	      0.00000000
      1.71000000	     12.83665183	     -4.73228513	     -0.81622841	     -1.02664084	      0.89774468	      0.03013116	    -29.41888738	     -1.27065218	    -12.01506978	     14.88485445	     11.36982717	      0.25978972	     14.62412023	     35.59695939	     -7.56321778	     16.45692460	     -6.45069030	     -7.17493766	     29.12724879	     -4.96494991	      0.50836639	     13.95335532	     11.02950323	     -7.56321778	    -28.73362065	     -0.23840425	      0.35218151	     13.50425508	    -31.66961196	      5.44650505	     82.81793654	     90.00000001	      0.00000000	      0.00000000	     -4.92848606	     -8.27413510	    -13.18198443	     35.17836504	     90.00000001	      0.00000000	      0.00000000
      1.72000000	     12.58940056	     -4.60125909	     -0.97014074	     -1.01713532	      0.89736344	      0.02861863	    -29.51064516	     -1.61556676	    -11.63343973	     15.29468704	     11.13277838	      0.26694265	     14.39519126	     35.64826774	     -7.56304252	     16.46562056	     -6.06196705	     -6.58736403	     29.88748328	     -4.97922643	      0.52163499	     13.71685243	     11.24651441	     -7.56304252	    -28.45199609	     -0.37944583	      0.38660412	     13.18499050	    -31.55561352	      5.40029089	     82.87162076	     90.00000001	      0.00000000	      0.00000000	     -4.82804701	     -8.35273854	    -13.21928302	     35.24559192	     90.00000001	      0.00000000	      0.00000000
      1.73000000	     12.26660702	     -4.41439949	     -0.86357196	     -1.00757614	      0.89664618	      0.02632629	    -29.52182725	     -2.14276444	    -11.83767520	     15.96509372	     11.40953306	      0.27864345	     13.87309505	     35.57510393	     -7.56252762	     16.88742723	     -5.64103628	     -6.00757170	     31.27411335	     -4.85251052	      0.54583625	     13.39182193	     11.24368318	     -7.56252762	    -28.11669702	     -0.41770547	      0.27316641	     12.56983462	    -31.36024502	      4.82956366	     83.20213183	     90.00000001	      0.00000000	      0.00000000	     -4.62855430	     -8.38230236	    -13.25135787	     35.33241779	     90.00000001	      0.00000000	      0.00000000
      1.74000000	     12.04018466	     -4.23670940	     -0.88336653	     -0.99794471	      0.89642523	      0.02433139	    -29.55659776	     -2.53220010	    -11.82261180	     16.60893073	     11.24305845	      0.28988053	     13.32321339	     35.55748344	     -7.56212872	     16.99693638	     -5.23216216	     -5.40039247	     32.28304240	     -4.76112953	      0.56344538	     13.15837997	     11.13436168	     -7.56212872	    -27.89858666	     -0.52421775	      0.27461011	     11.98225476	    -31.15849885	      4.46400568	     83.26051607	     90.00000001	      0.00000000	      0.00000000	     -4.38043457	     -8.41693061	    -13.23334241	     35.36479376	     90.00000001	      0.00000000	      0.00000000
      1.75000000	     11.84020153	     -4.04946579	     -0.83802852	     -0.98812172	      0.89630797	      0.02223824	    -29.55356472	     -2.99118599	    -12.23159158	     17.56757171	     11.18628322	      0.30661197	     12.38949141	     35.46447033	     -7.56147819	     17.06826925	     -4.86470384	     -4.75523002	     33.30314376	     -4.50547897	      0.58124951	     12.88559143	     10.49945172	     -7.56147819	    -27.69151008	     -0.61238054	      0.26659413	     11.20177959	    -30.83345297	      3.85337915	     83.33336396	     90.00000001	      0.00000000	      0.00000000	     -4.08337763	     -8.52536243	    -13.16530194	     35.30148727	     90.00000001	      0.00000000	      0.00000000
      1.76000000	     11.74376587	     -3.82689349	     -0.88758514	     -0.97841247	      0.89664271	      0.02020494	    -29.55297275	     -3.45694091	    -12.42293651	     18.56382989	     10.93542629	      0.32399995	     11.46228175	     35.40428337	     -7.56092096	     16.82931257	     -4.49339459	     -4.12269992	     33.98311954	     -4.16003197	      0.59311733	     12.61107140	      9.81036862	     -7.56092096	    -27.64209428	     -0.76645194	      0.30814974	     10.55322564	    -30.52917300	      3.48616715	     83.18435835	     90.00000001	      0.00000000	      0.00000000	     -3.71367701	     -8.59471147	    -13.06651757	     35.26542521	     90.00000001	      0.00000000	      0.00000000
      1.77000000	     11.76889827	     -3.13648622	     -0.81526988	     -0.96881794	      0.89751715	      0.01752609	    -29.53545449	     -4.47335302	    -13.70065950	     20.10635954	     10.57793188	      0.35092217	     10.15950938	     36.02704516	     -7.55787921	     16.04011113	     -3.37259071	     -2.14151761	     33.87515890	     -3.26528296	      0.59123306	     11.42428608	      6.03292883	     -7.55787921	    -27.77791520	     -1.34893276	      0.11981753	      9.72017220	    -30.08408987	      2.90937371	     83.04481882	     90.00000001	      0.00000000	      0.00000000	     -3.20145159	     -8.77233835	    -12.61598321	     35.11141699	     90.00000001	      0.00000000	      0.00000000
      1.78000000	     11.86114868	     -2.93189362	     -0.89291868	     -0.95898982	      0.89848199	      0.01567109	    -29.50459080	     -4.90843264	    -13.98264134	     21.54410955	     10.14492711	      0.37601565	      8.81013916	     35.60842951	     -7.55680406	     15.39552521	     -3.13746815	     -2.00323578	     34.21610441	     -2.95678455	      0.59718368	     11.37265497	      5.40495552	     -7.55680406	    -27.95245731	     -1.52951569	      0.15400022	      9.08774492	    -29.68951812	      2.70887869	     82.57927222	     90.00000001	      0.00000000	      0.00000000	     -2.78673358	     -8.84594974	    -12.60014135	     35.14542344	     90.00000001	      0.00000000	      0.00000000
      1.79000000	     12.05800803	     -2.46478081	     -0.92904739	     -0.94922099	      0.89980895	      0.01341755	    -29.44364709	     -5.71080009	    -14.73476789	     23.37556335	      9.71646088	      0.40798054	      7.24990727	     35.54001497	     -7.55422192	     14.39958344	     -2.51089745	     -1.66450446	     34.05552525	     -2.58731301	      0.59438104	     10.99674263	      4.20889777	     -7.55422192	    -28.26017402	     -1.93448821	      0.06220197	      8.41020815	    -29.21701057	      2.43196722	     82.05382629	     90.00000001	      0.00000000	      0.00000000	     -2.26770845	     -8.97871416	    -12.42872414	     35.11581647	     90.00000001	      0.00000000	      0.00000000
      1.80000000	     12.34594678	     -2.20812021	     -0.93373979	     -0.93950462	      0.90138013	      0.01143953	    -29.33954252	     -6.19785852	    -15.21479322	     25.34282265	      9.14264211	      0.44231570	      5.47512650	     34.92044811	     -7.55290480	     13.31124188	     -2.17525100	     -1.86648478	     33.87455319	     -2.50141212	      0.59122249	     11.07853367	      3.99794398	     -7.55290480	    -28.69135588	     -2.13871214	      0.02312139	      7.76170494	    -28.75290221	      2.26794053	     81.43138086	     90.00000001	      0.00000000	      0.00000000	     -1.69529721	     -9.11399724	    -12.32748107	     35.14563151	     90.00000001	      0.00000000	      0.00000000
      1.81000000	     12.68978396	     -1.91804939	     -0.94091544	     -0.92973147	      0.90311581	      0.00940709	    -29.13709008	     -6.74656233	    -15.65556629	     27.56683352	      8.50839568	      0.48113201	      3.74568555	     34.22714858	     -7.55159435	     12.06806310	     -1.77770973	     -2.26753597	     33.53806167	     -2.51363427	      0.58534960	     11.25256576	      4.07946509	     -7.55159435	    -29.17114832	     -2.36980836	     -0.06392090	      7.11210991	    -28.23921577	      2.16884423	     80.65685568	     90.00000001	      0.00000000	      0.00000000	     -1.11795445	     -9.25004194	    -12.18065406	     35.18979704	     90.00000001	      0.00000000	      0.00000000
      1.82000000	     13.05065565	     -1.74841841	     -0.97944350	     -0.92016431	      0.90499499	      0.00754844	    -28.71537077	     -7.10031185	    -15.77671452	     30.05268711	      7.68984845	      0.52451834	      2.05226613	     33.24995371	     -7.55092720	     10.78694088	     -1.55207701	     -2.76589736	     33.17284877	     -2.47693652	      0.57897543	     11.66918607	      4.31304147	     -7.55092720	    -29.69490223	     -2.49156240	     -0.09840842	      6.54538272	    -27.73661133	      2.13417647	     79.70346331	     90.00000001	      0.00000000	      0.00000000	     -0.49707783	     -9.36511154	    -12.06202202	     35.25442368	     90.00000001	      0.00000000	      0.00000000
      1.83000000	     13.34633777	     -1.45788742	     -0.88912747	     -0.91071965	      0.90668671	      0.00525589	    -28.02258539	     -7.63791230	    -16.03136239	     33.03491900	      6.97350769	      0.57656810	      0.54003749	     32.00667719	     -7.54984112	      9.58073211	     -1.02532095	     -3.38658795	     32.67749195	     -2.83841386	      0.57032983	     11.99821026	      5.06236057	     -7.54984112	    -30.16051645	     -2.65188123	     -0.32122259	      5.93552246	    -27.21787551	      2.09761819	     78.76117241	     90.00000001	      0.00000000	      0.00000000	      0.16739243	     -9.50465082	    -11.87091122	     35.29518265	     90.00000001	      0.00000000	      0.00000000
